<svg xmlns="http://www.w3.org/2000/svg" viewBox="0 0 500 500"><g id="freepik--background-simple--inject-34"><path d="M453.56,211.48s-61.1-149-172.8-177.82S122.21,92.88,105.1,153.92,24.91,295.76,30.63,351.27C36.08,404,82.31,429,125.49,439.68c54.88,13.61,117.25,14.64,172.34,3.3a358.52,358.52,0,0,0,38.73-10.49c25.88-8.44,51.29-15,77.5-22,49.88-13.3,69.64-66.87,64-118.13C474.9,263.54,464.33,237.73,453.56,211.48Z" style="fill:#FF936C"></path><path d="M453.56,211.48s-61.1-149-172.8-177.82S122.21,92.88,105.1,153.92,24.91,295.76,30.63,351.27C36.08,404,82.31,429,125.49,439.68c54.88,13.61,117.25,14.64,172.34,3.3a358.52,358.52,0,0,0,38.73-10.49c25.88-8.44,51.29-15,77.5-22,49.88-13.3,69.64-66.87,64-118.13C474.9,263.54,464.33,237.73,453.56,211.48Z" style="fill:#fff;opacity:0.7000000000000001"></path></g><g id="freepik--Graphics--inject-34"><g style="opacity:0.2"><path d="M382.26,279.49a.94.94,0,0,1-.7-1.28l.05-.13a.94.94,0,0,1,1.3-.57,11.1,11.1,0,0,1,2.31,1.22,11,11,0,0,1-.44-2.66,1,1,0,0,1,1-1.06h.14a1,1,0,0,1,1,1.06,11.45,11.45,0,0,1-.43,2.66,12.14,12.14,0,0,1,2.3-1.22.93.93,0,0,1,1.3.59l0,.09a.93.93,0,0,1-.68,1.3,11.36,11.36,0,0,1-2.57.38,10.86,10.86,0,0,1,1.92,1.81,1,1,0,0,1-.16,1.41l-.11.09a.94.94,0,0,1-1.44-.28,12.13,12.13,0,0,1-1.19-2.35,13.26,13.26,0,0,1-1.22,2.35.94.94,0,0,1-1.44.28l-.1-.09a1,1,0,0,1-.17-1.41,12.72,12.72,0,0,1,1.93-1.84A10.25,10.25,0,0,1,382.26,279.49Z"></path><path d="M392.4,279.49a.94.94,0,0,1-.7-1.28l.05-.13a.94.94,0,0,1,1.3-.57,11.1,11.1,0,0,1,2.31,1.22,11,11,0,0,1-.44-2.66,1,1,0,0,1,1-1.06H396a1,1,0,0,1,1,1.06,11.45,11.45,0,0,1-.43,2.66,12.14,12.14,0,0,1,2.3-1.22,1,1,0,0,1,1.31.59l0,.09a.93.93,0,0,1-.68,1.3,11.36,11.36,0,0,1-2.57.38,10.86,10.86,0,0,1,1.92,1.81,1,1,0,0,1-.16,1.41l-.11.09a.93.93,0,0,1-1.43-.28,11.57,11.57,0,0,1-1.2-2.35,13.26,13.26,0,0,1-1.22,2.35.94.94,0,0,1-1.44.28l-.1-.09a1,1,0,0,1-.17-1.41,12.72,12.72,0,0,1,1.93-1.84A10.25,10.25,0,0,1,392.4,279.49Z"></path><path d="M402.54,279.49a1,1,0,0,1-.7-1.28l.05-.13a.94.94,0,0,1,1.3-.57,11.1,11.1,0,0,1,2.31,1.22,11,11,0,0,1-.43-2.66,1,1,0,0,1,1-1.06h.14a1,1,0,0,1,1,1.06,11.45,11.45,0,0,1-.43,2.66,12.14,12.14,0,0,1,2.3-1.22,1,1,0,0,1,1.31.59l0,.09a.93.93,0,0,1-.67,1.3,11.54,11.54,0,0,1-2.58.38,10.86,10.86,0,0,1,1.92,1.81,1,1,0,0,1-.16,1.41l-.11.09a.93.93,0,0,1-1.43-.28,12.1,12.1,0,0,1-1.2-2.35,13.26,13.26,0,0,1-1.22,2.35.93.93,0,0,1-1.43.28l-.11-.09a1,1,0,0,1-.17-1.41,12.72,12.72,0,0,1,1.93-1.84A10.25,10.25,0,0,1,402.54,279.49Z"></path><path d="M412.68,279.49a1,1,0,0,1-.7-1.28l0-.13a.94.94,0,0,1,1.3-.57,11.1,11.1,0,0,1,2.31,1.22,11.45,11.45,0,0,1-.43-2.66,1,1,0,0,1,1-1.06h.14a1,1,0,0,1,1,1.06,11.45,11.45,0,0,1-.43,2.66,12.14,12.14,0,0,1,2.3-1.22,1,1,0,0,1,1.31.59l0,.09a.93.93,0,0,1-.67,1.3,11.54,11.54,0,0,1-2.58.38,10.86,10.86,0,0,1,1.92,1.81,1,1,0,0,1-.16,1.41l-.11.09a.93.93,0,0,1-1.43-.28,12.1,12.1,0,0,1-1.2-2.35A13.26,13.26,0,0,1,415,282.9a.93.93,0,0,1-1.43.28l-.11-.09a1,1,0,0,1-.17-1.41,12.72,12.72,0,0,1,1.93-1.84A10.25,10.25,0,0,1,412.68,279.49Z"></path><path d="M422.82,279.49a1,1,0,0,1-.7-1.28l.05-.13a1,1,0,0,1,1.31-.57,11.3,11.3,0,0,1,2.3,1.22,11.45,11.45,0,0,1-.43-2.66,1,1,0,0,1,1-1.06h.14a1,1,0,0,1,1,1.06,11.45,11.45,0,0,1-.43,2.66,12.14,12.14,0,0,1,2.3-1.22,1,1,0,0,1,1.31.59l0,.09a.93.93,0,0,1-.67,1.3,11.54,11.54,0,0,1-2.58.38,10.86,10.86,0,0,1,1.92,1.81,1,1,0,0,1-.16,1.41l-.11.09a.93.93,0,0,1-1.43-.28,12.1,12.1,0,0,1-1.2-2.35,13.26,13.26,0,0,1-1.22,2.35.93.93,0,0,1-1.43.28l-.11-.09a.94.94,0,0,1-.16-1.41,12.16,12.16,0,0,1,1.92-1.84A10.25,10.25,0,0,1,422.82,279.49Z"></path><path d="M433,279.49a1,1,0,0,1-.7-1.28l.05-.13a1,1,0,0,1,1.31-.57,11.3,11.3,0,0,1,2.3,1.22,11.45,11.45,0,0,1-.43-2.66,1,1,0,0,1,1-1.06h.14a1,1,0,0,1,1,1.06,11.45,11.45,0,0,1-.43,2.66,11.9,11.9,0,0,1,2.31-1.22.94.94,0,0,1,1.3.59l0,.09a.93.93,0,0,1-.67,1.3,11.45,11.45,0,0,1-2.58.38,11.31,11.31,0,0,1,1.93,1.81,1,1,0,0,1-.17,1.41l-.11.09a.93.93,0,0,1-1.43-.28,12.1,12.1,0,0,1-1.2-2.35,13.26,13.26,0,0,1-1.22,2.35.93.93,0,0,1-1.43.28l-.11-.09a.94.94,0,0,1-.16-1.41,12.16,12.16,0,0,1,1.92-1.84A10.25,10.25,0,0,1,433,279.49Z"></path><path d="M443.11,279.49a1,1,0,0,1-.71-1.28l.05-.13a1,1,0,0,1,1.31-.57,11.3,11.3,0,0,1,2.3,1.22,11.45,11.45,0,0,1-.43-2.66,1,1,0,0,1,1-1.06h.14a1,1,0,0,1,1,1.06,11,11,0,0,1-.44,2.66,11.9,11.9,0,0,1,2.31-1.22.94.94,0,0,1,1.3.59l0,.09a.93.93,0,0,1-.68,1.3,11.45,11.45,0,0,1-2.58.38,11.31,11.31,0,0,1,1.93,1.81,1,1,0,0,1-.17,1.41l-.1.09a.94.94,0,0,1-1.44-.28,11.59,11.59,0,0,1-1.19-2.35,13.22,13.22,0,0,1-1.23,2.35.93.93,0,0,1-1.43.28l-.11-.09a.94.94,0,0,1-.16-1.41,12.16,12.16,0,0,1,1.92-1.84A10.1,10.1,0,0,1,443.11,279.49Z"></path><path d="M453.25,279.49a1,1,0,0,1-.71-1.28l0-.13a1,1,0,0,1,1.31-.57,11.3,11.3,0,0,1,2.3,1.22,11.45,11.45,0,0,1-.43-2.66,1,1,0,0,1,1-1.06h.14a1,1,0,0,1,1,1.06,11,11,0,0,1-.44,2.66,11.9,11.9,0,0,1,2.31-1.22.94.94,0,0,1,1.3.59l0,.09a.93.93,0,0,1-.68,1.3,11.45,11.45,0,0,1-2.58.38,11.31,11.31,0,0,1,1.93,1.81,1,1,0,0,1-.17,1.41l-.11.09a.93.93,0,0,1-1.43-.28,11.59,11.59,0,0,1-1.19-2.35,13.22,13.22,0,0,1-1.23,2.35.93.93,0,0,1-1.43.28l-.11-.09a.94.94,0,0,1-.16-1.41,12.16,12.16,0,0,1,1.92-1.84A10.1,10.1,0,0,1,453.25,279.49Z"></path></g><g style="opacity:0.2"><path d="M182.79,55a.94.94,0,0,1-.71-1.27l.06-.14a.94.94,0,0,1,1.3-.57,11.83,11.83,0,0,1,2.3,1.22,11.45,11.45,0,0,1-.43-2.66.94.94,0,0,1,1-1.05h.13a1,1,0,0,1,1,1.05,11,11,0,0,1-.44,2.66A12.47,12.47,0,0,1,189.27,53a.94.94,0,0,1,1.3.6l0,.08a.93.93,0,0,1-.68,1.3,11.36,11.36,0,0,1-2.58.38,11,11,0,0,1,1.93,1.82,1,1,0,0,1-.16,1.41l-.11.08a1,1,0,0,1-1.44-.27A12,12,0,0,1,186.37,56a13.76,13.76,0,0,1-1.22,2.36,1,1,0,0,1-1.44.27l-.11-.08a1,1,0,0,1-.16-1.41,12.18,12.18,0,0,1,1.92-1.85A10.17,10.17,0,0,1,182.79,55Z"></path><path d="M192.93,55a.94.94,0,0,1-.71-1.27l.06-.14a.94.94,0,0,1,1.3-.57,11.55,11.55,0,0,1,2.3,1.22,11.45,11.45,0,0,1-.43-2.66.94.94,0,0,1,1-1.05h.13a.94.94,0,0,1,1,1.05,11,11,0,0,1-.44,2.66A12.47,12.47,0,0,1,199.41,53a.94.94,0,0,1,1.3.6l0,.08a.93.93,0,0,1-.68,1.3,11.36,11.36,0,0,1-2.58.38,11,11,0,0,1,1.93,1.82,1,1,0,0,1-.16,1.41l-.11.08a1,1,0,0,1-1.44-.27A12,12,0,0,1,196.51,56a13.76,13.76,0,0,1-1.22,2.36,1,1,0,0,1-1.44.27l-.11-.08a1,1,0,0,1-.16-1.41,12.63,12.63,0,0,1,1.92-1.85A10.17,10.17,0,0,1,192.93,55Z"></path><path d="M203.07,55a.94.94,0,0,1-.71-1.27l.06-.14a.94.94,0,0,1,1.3-.57,11.55,11.55,0,0,1,2.3,1.22,11.45,11.45,0,0,1-.43-2.66.94.94,0,0,1,1-1.05h.13a.94.94,0,0,1,1,1.05,11,11,0,0,1-.44,2.66A12.47,12.47,0,0,1,209.55,53a.94.94,0,0,1,1.3.6l0,.08a.93.93,0,0,1-.68,1.3,11.36,11.36,0,0,1-2.58.38,11,11,0,0,1,1.93,1.82,1,1,0,0,1-.16,1.41l-.11.08a1,1,0,0,1-1.44-.27A12,12,0,0,1,206.65,56a13.76,13.76,0,0,1-1.22,2.36,1,1,0,0,1-1.44.27l-.11-.08a1,1,0,0,1-.16-1.41,12.63,12.63,0,0,1,1.92-1.85A10.17,10.17,0,0,1,203.07,55Z"></path><path d="M213.21,55a.94.94,0,0,1-.71-1.27l.06-.14a.94.94,0,0,1,1.3-.57,11.55,11.55,0,0,1,2.3,1.22,11.45,11.45,0,0,1-.43-2.66.94.94,0,0,1,1-1.05h.13a.94.94,0,0,1,1,1.05,11,11,0,0,1-.44,2.66A12.47,12.47,0,0,1,219.69,53a.94.94,0,0,1,1.3.6l0,.08a.93.93,0,0,1-.68,1.3,11.36,11.36,0,0,1-2.58.38,11,11,0,0,1,1.93,1.82,1,1,0,0,1-.16,1.41l-.11.08A1,1,0,0,1,218,58.4,12,12,0,0,1,216.79,56a13.76,13.76,0,0,1-1.22,2.36,1,1,0,0,1-1.44.27l-.11-.08a1,1,0,0,1-.16-1.41,12.63,12.63,0,0,1,1.92-1.85A10.17,10.17,0,0,1,213.21,55Z"></path><path d="M223.35,55a.94.94,0,0,1-.71-1.27l.06-.14A.94.94,0,0,1,224,53a11.55,11.55,0,0,1,2.3,1.22,11.45,11.45,0,0,1-.43-2.66.94.94,0,0,1,1-1.05H227a.94.94,0,0,1,1,1.05,11.45,11.45,0,0,1-.43,2.66,12.12,12.12,0,0,1,2.3-1.22.94.94,0,0,1,1.3.6l0,.08a.93.93,0,0,1-.68,1.3,11.36,11.36,0,0,1-2.58.38,11,11,0,0,1,1.93,1.82,1,1,0,0,1-.16,1.41l-.11.08a1,1,0,0,1-1.44-.27A12,12,0,0,1,226.93,56a13.76,13.76,0,0,1-1.22,2.36,1,1,0,0,1-1.44.27l-.11-.08a1,1,0,0,1-.16-1.41,12.28,12.28,0,0,1,1.93-1.85A10.18,10.18,0,0,1,223.35,55Z"></path><path d="M233.49,55a1,1,0,0,1-.71-1.27l.06-.14a.94.94,0,0,1,1.3-.57,11.88,11.88,0,0,1,2.31,1.22,11,11,0,0,1-.44-2.66.94.94,0,0,1,1-1.05h.13a.94.94,0,0,1,1,1.05,11.45,11.45,0,0,1-.43,2.66A12.42,12.42,0,0,1,240,53a.94.94,0,0,1,1.3.6l0,.08a.93.93,0,0,1-.68,1.3,11.36,11.36,0,0,1-2.57.38A11.24,11.24,0,0,1,240,57.18a1,1,0,0,1-.16,1.41l-.11.08a1,1,0,0,1-1.44-.27A12,12,0,0,1,237.07,56a13.76,13.76,0,0,1-1.22,2.36,1,1,0,0,1-1.44.27l-.11-.08a1,1,0,0,1-.16-1.41,12.28,12.28,0,0,1,1.93-1.85A10.18,10.18,0,0,1,233.49,55Z"></path><path d="M243.63,55a.93.93,0,0,1-.7-1.27l0-.14a.94.94,0,0,1,1.3-.57,11.88,11.88,0,0,1,2.31,1.22,11,11,0,0,1-.44-2.66,1,1,0,0,1,1-1.05h.13a.94.94,0,0,1,1,1.05,11.45,11.45,0,0,1-.43,2.66,12.42,12.42,0,0,1,2.3-1.22.94.94,0,0,1,1.3.6l0,.08a.93.93,0,0,1-.68,1.3,11.36,11.36,0,0,1-2.57.38,11.24,11.24,0,0,1,1.92,1.82,1,1,0,0,1-.16,1.41l-.11.08a1,1,0,0,1-1.44-.27A12,12,0,0,1,247.21,56,13.76,13.76,0,0,1,246,58.4a1,1,0,0,1-1.44.27l-.11-.08a1,1,0,0,1-.16-1.41,12.28,12.28,0,0,1,1.93-1.85A10.18,10.18,0,0,1,243.63,55Z"></path><path d="M253.77,55a.93.93,0,0,1-.7-1.27l.05-.14a.94.94,0,0,1,1.3-.57,11.88,11.88,0,0,1,2.31,1.22,11,11,0,0,1-.44-2.66.94.94,0,0,1,1-1.05h.13a.94.94,0,0,1,1,1.05,11.45,11.45,0,0,1-.43,2.66,12.42,12.42,0,0,1,2.3-1.22.94.94,0,0,1,1.3.6l0,.08a.93.93,0,0,1-.68,1.3,11.36,11.36,0,0,1-2.57.38,11.24,11.24,0,0,1,1.92,1.82,1,1,0,0,1-.16,1.41l-.11.08a1,1,0,0,1-1.44-.27A12,12,0,0,1,257.35,56a13.76,13.76,0,0,1-1.22,2.36,1,1,0,0,1-1.44.27l-.11-.08a1,1,0,0,1-.16-1.41,12.28,12.28,0,0,1,1.93-1.85A10.18,10.18,0,0,1,253.77,55Z"></path></g><g style="opacity:0.2"><path d="M267.67,371.58a.94.94,0,0,1-.71-1.27l.05-.14a1,1,0,0,1,1.31-.57,11.83,11.83,0,0,1,2.3,1.22,11.46,11.46,0,0,1-.43-2.65.94.94,0,0,1,1-1.06h.14a1,1,0,0,1,1,1.06,11,11,0,0,1-.44,2.65,12.47,12.47,0,0,1,2.31-1.22.94.94,0,0,1,1.3.6l0,.08a.92.92,0,0,1-.68,1.3,10.91,10.91,0,0,1-2.58.38,11.75,11.75,0,0,1,1.93,1.82,1,1,0,0,1-.17,1.41l-.1.08a1,1,0,0,1-1.44-.27,11.7,11.7,0,0,1-1.19-2.36A13.35,13.35,0,0,1,270,375a.94.94,0,0,1-1.43.27l-.11-.08a.94.94,0,0,1-.16-1.41,12.16,12.16,0,0,1,1.92-1.84A10.07,10.07,0,0,1,267.67,371.58Z"></path><path d="M277.81,371.58a.94.94,0,0,1-.71-1.27l.06-.14a.94.94,0,0,1,1.3-.57,11.83,11.83,0,0,1,2.3,1.22,11.46,11.46,0,0,1-.43-2.65.94.94,0,0,1,1-1.06h.14a1,1,0,0,1,1,1.06,11,11,0,0,1-.44,2.65,12.47,12.47,0,0,1,2.31-1.22.94.94,0,0,1,1.3.6l0,.08a.92.92,0,0,1-.68,1.3,10.91,10.91,0,0,1-2.58.38,11.75,11.75,0,0,1,1.93,1.82,1,1,0,0,1-.17,1.41l-.1.08a1,1,0,0,1-1.44-.27,11.7,11.7,0,0,1-1.19-2.36,13.39,13.39,0,0,1-1.22,2.36,1,1,0,0,1-1.44.27l-.11-.08a.94.94,0,0,1-.16-1.41,12.16,12.16,0,0,1,1.92-1.84A10.07,10.07,0,0,1,277.81,371.58Z"></path><path d="M288,371.58a.94.94,0,0,1-.71-1.27l.06-.14a.94.94,0,0,1,1.3-.57,11.83,11.83,0,0,1,2.3,1.22,11.46,11.46,0,0,1-.43-2.65.94.94,0,0,1,1-1.06h.14a1,1,0,0,1,1,1.06,11,11,0,0,1-.44,2.65,12.47,12.47,0,0,1,2.31-1.22.94.94,0,0,1,1.3.6l0,.08a.92.92,0,0,1-.68,1.3,10.91,10.91,0,0,1-2.58.38,11.75,11.75,0,0,1,1.93,1.82,1,1,0,0,1-.17,1.41l-.1.08a1,1,0,0,1-1.44-.27,11.7,11.7,0,0,1-1.19-2.36,13.39,13.39,0,0,1-1.22,2.36,1,1,0,0,1-1.44.27l-.11-.08a1,1,0,0,1-.16-1.41,12.16,12.16,0,0,1,1.92-1.84A10.14,10.14,0,0,1,288,371.58Z"></path><path d="M298.09,371.58a.94.94,0,0,1-.71-1.27l.06-.14a.94.94,0,0,1,1.3-.57,11.83,11.83,0,0,1,2.3,1.22,11.46,11.46,0,0,1-.43-2.65.94.94,0,0,1,1-1.06h.14a1,1,0,0,1,1,1.06,11,11,0,0,1-.44,2.65,12.47,12.47,0,0,1,2.31-1.22.94.94,0,0,1,1.3.6l0,.08a.92.92,0,0,1-.68,1.3,10.83,10.83,0,0,1-2.58.38,11.75,11.75,0,0,1,1.93,1.82,1,1,0,0,1-.16,1.41l-.11.08a1,1,0,0,1-1.44-.27,11.7,11.7,0,0,1-1.19-2.36,13.39,13.39,0,0,1-1.22,2.36,1,1,0,0,1-1.44.27l-.11-.08a1,1,0,0,1-.16-1.41,12.62,12.62,0,0,1,1.92-1.84A10.14,10.14,0,0,1,298.09,371.58Z"></path><path d="M308.23,371.58a.94.94,0,0,1-.71-1.27l.06-.14a.94.94,0,0,1,1.3-.57,11.83,11.83,0,0,1,2.3,1.22,11.46,11.46,0,0,1-.43-2.65,1,1,0,0,1,1-1.06h.13a1,1,0,0,1,1,1.06,11,11,0,0,1-.44,2.65,12.47,12.47,0,0,1,2.31-1.22.94.94,0,0,1,1.3.6l0,.08a.92.92,0,0,1-.68,1.3,10.83,10.83,0,0,1-2.58.38,11.75,11.75,0,0,1,1.93,1.82,1,1,0,0,1-.16,1.41l-.11.08A1,1,0,0,1,313,375a11.7,11.7,0,0,1-1.19-2.36,13.39,13.39,0,0,1-1.22,2.36,1,1,0,0,1-1.44.27l-.11-.08a1,1,0,0,1-.16-1.41,12.62,12.62,0,0,1,1.92-1.84A10.14,10.14,0,0,1,308.23,371.58Z"></path><path d="M318.37,371.58a.94.94,0,0,1-.71-1.27l.06-.14a.94.94,0,0,1,1.3-.57,11.55,11.55,0,0,1,2.3,1.22,11.46,11.46,0,0,1-.43-2.65,1,1,0,0,1,1-1.06H322a1,1,0,0,1,1,1.06,11,11,0,0,1-.44,2.65,12.47,12.47,0,0,1,2.31-1.22.94.94,0,0,1,1.3.6l0,.08a.92.92,0,0,1-.68,1.3,10.83,10.83,0,0,1-2.58.38,11.75,11.75,0,0,1,1.93,1.82,1,1,0,0,1-.16,1.41l-.11.08a1,1,0,0,1-1.44-.27,11.7,11.7,0,0,1-1.19-2.36,13.39,13.39,0,0,1-1.22,2.36,1,1,0,0,1-1.44.27l-.11-.08a1,1,0,0,1-.16-1.41,13.1,13.1,0,0,1,1.92-1.84A10.14,10.14,0,0,1,318.37,371.58Z"></path><path d="M328.51,371.58a.94.94,0,0,1-.71-1.27l.06-.14a.94.94,0,0,1,1.3-.57,11.55,11.55,0,0,1,2.3,1.22,11.46,11.46,0,0,1-.43-2.65,1,1,0,0,1,1-1.06h.13a1,1,0,0,1,1,1.06,11,11,0,0,1-.44,2.65A12.47,12.47,0,0,1,335,369.6a.94.94,0,0,1,1.3.6l0,.08a.92.92,0,0,1-.68,1.3,10.83,10.83,0,0,1-2.58.38,11.75,11.75,0,0,1,1.93,1.82,1,1,0,0,1-.16,1.41l-.11.08a1,1,0,0,1-1.44-.27,11.7,11.7,0,0,1-1.19-2.36,13.39,13.39,0,0,1-1.22,2.36,1,1,0,0,1-1.44.27l-.11-.08a1,1,0,0,1-.16-1.41,12.72,12.72,0,0,1,1.93-1.84A10.16,10.16,0,0,1,328.51,371.58Z"></path><path d="M338.65,371.58a.94.94,0,0,1-.71-1.27l.06-.14a.94.94,0,0,1,1.3-.57,11.55,11.55,0,0,1,2.3,1.22,11.46,11.46,0,0,1-.43-2.65,1,1,0,0,1,1-1.06h.13a1,1,0,0,1,1,1.06,11,11,0,0,1-.44,2.65,12.47,12.47,0,0,1,2.31-1.22.94.94,0,0,1,1.3.6l0,.08a.92.92,0,0,1-.68,1.3,10.83,10.83,0,0,1-2.58.38,11.75,11.75,0,0,1,1.93,1.82,1,1,0,0,1-.16,1.41l-.11.08a1,1,0,0,1-1.44-.27,11.7,11.7,0,0,1-1.19-2.36A13.39,13.39,0,0,1,341,375a1,1,0,0,1-1.44.27l-.11-.08a1,1,0,0,1-.16-1.41,12.72,12.72,0,0,1,1.93-1.84A10.16,10.16,0,0,1,338.65,371.58Z"></path></g><g style="opacity:0.2"><path d="M429.4,322.38v-7.12a8.14,8.14,0,0,1,16.27,0v7.07h3.24v-7.07a11.38,11.38,0,0,0-22.75,0v7.12Z" style="fill:none;stroke:#000;stroke-miterlimit:10"></path><rect x="424.96" y="322.4" width="24.83" height="20.54" style="fill:none;stroke:#000;stroke-miterlimit:10"></rect><path d="M440,330.93a2.71,2.71,0,0,0-5.41,0,2.63,2.63,0,0,0,1.42,2.33l-.46,4.66H439l-.45-4.66A2.65,2.65,0,0,0,440,330.93Z" style="fill:none;stroke:#000;stroke-miterlimit:10"></path></g><g style="opacity:0.2"><path d="M77.61,99V91.86a8.14,8.14,0,0,1,16.27,0v7.07h3.24V91.86a11.38,11.38,0,0,0-22.75,0V99Z" style="fill:none;stroke:#000;stroke-miterlimit:10"></path><rect x="73.17" y="99" width="24.83" height="20.54" style="fill:none;stroke:#000;stroke-miterlimit:10"></rect><path d="M88.17,107.53a2.71,2.71,0,0,0-5.41,0,2.63,2.63,0,0,0,1.42,2.33l-.46,4.67H87.2l-.45-4.67A2.65,2.65,0,0,0,88.17,107.53Z" style="fill:none;stroke:#000;stroke-miterlimit:10"></path></g><g style="opacity:0.2"><path d="M387.62,45.17V40.5a5.34,5.34,0,0,1,10.67,0v4.64h2.13V40.5a7.46,7.46,0,0,0-14.92,0v4.67Z" style="fill:none;stroke:#000;stroke-miterlimit:10"></path><rect x="384.71" y="45.18" width="16.29" height="13.48" style="fill:none;stroke:#000;stroke-miterlimit:10"></rect><path d="M394.55,50.78a1.78,1.78,0,0,0-3.55,0,1.72,1.72,0,0,0,.93,1.52l-.3,3.07h2.28l-.29-3.07A1.72,1.72,0,0,0,394.55,50.78Z" style="fill:none;stroke:#000;stroke-miterlimit:10"></path></g></g></svg>