<svg xmlns="http://www.w3.org/2000/svg" viewBox="0 0 500 500"><g id="freepik--background-simple--inject-2"><path d="M475.79,277.05c-13.49,40.89-42.56,85.72-85.35,100.31C325.8,399.42,320,452.43,202.71,452.07a236.91,236.91,0,0,1-50.94-5.47,197.3,197.3,0,0,1-24.12-7c-69.5-25.07-107.55-84.69-113-148.4-7.15-83.8,49.87-126.07,87-151s79.53-117.45,194.87-118a228.73,228.73,0,0,1,52.35,5.59c39.16,9,79.46,30.67,103.67,63.7,1.81,2.48,3.55,5,5.23,7.62C490.46,149.94,494.19,221.29,475.79,277.05Z" style="fill:#FF936C"></path><path d="M475.79,277.05c-13.49,40.89-42.56,85.72-85.35,100.31C325.8,399.42,320,452.43,202.71,452.07a236.91,236.91,0,0,1-50.94-5.47,197.3,197.3,0,0,1-24.12-7c-69.5-25.07-107.55-84.69-113-148.4-7.15-83.8,49.87-126.07,87-151s79.53-117.45,194.87-118a228.73,228.73,0,0,1,52.35,5.59c39.16,9,79.46,30.67,103.67,63.7,1.81,2.48,3.55,5,5.23,7.62C490.46,149.94,494.19,221.29,475.79,277.05Z" style="fill:#fff;opacity:0.7000000000000001"></path></g><g id="freepik--Checklists--inject-2"><path d="M55.29,80H41.6a.5.5,0,0,1-.5-.5V65.84a.5.5,0,0,1,.5-.5H55.29a.5.5,0,0,1,.5.5v13.7A.5.5,0,0,1,55.29,80ZM42.1,79H54.79V66.34H42.1Z" style="fill:#263238"></path><path d="M121,73.19H60.77a.5.5,0,0,1-.5-.5.5.5,0,0,1,.5-.5H121a.5.5,0,0,1,.5.5A.5.5,0,0,1,121,73.19Z" style="fill:#263238"></path><path d="M55.29,99.21H41.6a.5.5,0,0,1-.5-.5V85a.5.5,0,0,1,.5-.5H55.29a.5.5,0,0,1,.5.5v13.7A.5.5,0,0,1,55.29,99.21Zm-13.19-1H54.79V85.51H42.1Z" style="fill:#263238"></path><path d="M121,92.36H60.77a.5.5,0,1,1,0-1H121a.5.5,0,0,1,0,1Z" style="fill:#263238"></path><path d="M55.29,118.38H41.6a.5.5,0,0,1-.5-.5v-13.7a.5.5,0,0,1,.5-.5H55.29a.5.5,0,0,1,.5.5v13.7A.5.5,0,0,1,55.29,118.38Zm-13.19-1H54.79v-12.7H42.1Z" style="fill:#263238"></path><path d="M121,111.53H60.77a.5.5,0,0,1,0-1H121a.5.5,0,1,1,0,1Z" style="fill:#263238"></path><path d="M55.29,137.55H41.6a.5.5,0,0,1-.5-.5v-13.7a.5.5,0,0,1,.5-.5H55.29a.5.5,0,0,1,.5.5v13.7A.5.5,0,0,1,55.29,137.55Zm-13.19-1H54.79v-12.7H42.1Z" style="fill:#263238"></path><path d="M121,130.7H60.77a.5.5,0,0,1-.5-.5.5.5,0,0,1,.5-.5H121a.5.5,0,0,1,.5.5A.5.5,0,0,1,121,130.7Z" style="fill:#263238"></path><path d="M55.29,156.72H41.6a.5.5,0,0,1-.5-.5V142.53a.5.5,0,0,1,.5-.5H55.29a.5.5,0,0,1,.5.5v13.69A.5.5,0,0,1,55.29,156.72Zm-13.19-1H54.79V143H42.1Z" style="fill:#263238"></path><path d="M121,149.87H60.77a.5.5,0,0,1-.5-.5.5.5,0,0,1,.5-.5H121a.5.5,0,0,1,.5.5A.5.5,0,0,1,121,149.87Z" style="fill:#263238"></path><path d="M55.29,175.89H41.6a.5.5,0,0,1-.5-.5V161.7a.5.5,0,0,1,.5-.5H55.29a.5.5,0,0,1,.5.5v13.69A.5.5,0,0,1,55.29,175.89Zm-13.19-1H54.79V162.2H42.1Z" style="fill:#263238"></path><path d="M121,169H60.77a.5.5,0,0,1-.5-.5.5.5,0,0,1,.5-.5H121a.5.5,0,0,1,.5.5A.5.5,0,0,1,121,169Z" style="fill:#263238"></path><path d="M438.92,317.38H429.5a.5.5,0,0,1-.5-.5v-9.42a.5.5,0,0,1,.5-.5h9.42a.5.5,0,0,1,.5.5v9.42A.5.5,0,0,1,438.92,317.38Zm-8.92-1h8.42V308H430Z" style="fill:#263238"></path><path d="M484.13,312.67H442.68a.5.5,0,0,1,0-1h41.45a.5.5,0,0,1,0,1Z" style="fill:#263238"></path><path d="M438.92,330.57H429.5a.5.5,0,0,1-.5-.5v-9.42a.5.5,0,0,1,.5-.5h9.42a.5.5,0,0,1,.5.5v9.42A.51.51,0,0,1,438.92,330.57Zm-8.92-1h8.42v-8.42H430Z" style="fill:#263238"></path><path d="M484.13,325.86H442.68a.51.51,0,0,1-.5-.5.5.5,0,0,1,.5-.5h41.45a.5.5,0,0,1,.5.5A.5.5,0,0,1,484.13,325.86Z" style="fill:#263238"></path><path d="M438.92,343.76H429.5a.5.5,0,0,1-.5-.5v-9.42a.5.5,0,0,1,.5-.5h9.42a.5.5,0,0,1,.5.5v9.42A.51.51,0,0,1,438.92,343.76Zm-8.92-1h8.42v-8.42H430Z" style="fill:#263238"></path><path d="M484.13,339.05H442.68a.51.51,0,0,1-.5-.5.5.5,0,0,1,.5-.5h41.45a.5.5,0,0,1,.5.5A.5.5,0,0,1,484.13,339.05Z" style="fill:#263238"></path><path d="M438.92,356.94H429.5a.5.5,0,0,1-.5-.5V347a.5.5,0,0,1,.5-.5h9.42a.51.51,0,0,1,.5.5v9.42A.5.5,0,0,1,438.92,356.94Zm-8.92-1h8.42v-8.42H430Z" style="fill:#263238"></path><path d="M484.13,352.23H442.68a.5.5,0,0,1-.5-.5.51.51,0,0,1,.5-.5h41.45a.5.5,0,0,1,.5.5A.5.5,0,0,1,484.13,352.23Z" style="fill:#263238"></path><path d="M438.92,370.13H429.5a.5.5,0,0,1-.5-.5v-9.42a.5.5,0,0,1,.5-.5h9.42a.51.51,0,0,1,.5.5v9.42A.5.5,0,0,1,438.92,370.13Zm-8.92-1h8.42v-8.42H430Z" style="fill:#263238"></path><path d="M484.13,365.42H442.68a.5.5,0,0,1-.5-.5.51.51,0,0,1,.5-.5h41.45a.5.5,0,0,1,.5.5A.5.5,0,0,1,484.13,365.42Z" style="fill:#263238"></path><path d="M438.92,383.32H429.5a.5.5,0,0,1-.5-.5V373.4a.5.5,0,0,1,.5-.5h9.42a.5.5,0,0,1,.5.5v9.42A.5.5,0,0,1,438.92,383.32Zm-8.92-1h8.42V373.9H430Z" style="fill:#263238"></path><path d="M484.13,378.61H442.68a.5.5,0,1,1,0-1h41.45a.5.5,0,0,1,0,1Z" style="fill:#263238"></path></g><g id="freepik--Envelopes--inject-2"><path d="M267.23,107.47h-59.3a.5.5,0,0,1-.5-.5V64.52a.5.5,0,0,1,.5-.5h59.3a.5.5,0,0,1,.5.5V107A.5.5,0,0,1,267.23,107.47Zm-58.8-1h58.3V65h-58.3Z" style="fill:#263238"></path><path d="M237.58,86.25a.5.5,0,0,1-.29-.09L207.64,64.93a.5.5,0,0,1-.12-.7.51.51,0,0,1,.7-.11l29.36,21,29.36-21a.5.5,0,1,1,.58.81L237.87,86.16A.52.52,0,0,1,237.58,86.25Z" style="fill:#263238"></path><path d="M308.32,78H272a.5.5,0,0,1-.5-.5v-26a.5.5,0,0,1,.5-.5h36.34a.5.5,0,0,1,.5.5v26A.5.5,0,0,1,308.32,78Zm-35.84-1h35.34V52H272.48Z" style="fill:#263238"></path><path d="M290.15,65a.46.46,0,0,1-.29-.1l-18.17-13a.5.5,0,0,1-.12-.7.51.51,0,0,1,.7-.12l17.88,12.8L308,51.1a.51.51,0,0,1,.7.12.5.5,0,0,1-.12.7l-18.17,13A.46.46,0,0,1,290.15,65Z" style="fill:#263238"></path><path d="M77,427.25H40.7a.51.51,0,0,1-.5-.5v-26a.51.51,0,0,1,.5-.5H77a.5.5,0,0,1,.5.5v26A.5.5,0,0,1,77,427.25Zm-35.84-1H76.54v-25H41.2Z" style="fill:#263238"></path><path d="M58.87,414.24a.52.52,0,0,1-.29-.09l-18.17-13a.51.51,0,0,1-.11-.7.5.5,0,0,1,.69-.11l17.88,12.8,17.88-12.8a.51.51,0,0,1,.7.11.5.5,0,0,1-.12.7l-18.17,13A.5.5,0,0,1,58.87,414.24Z" style="fill:#263238"></path></g><g id="freepik--Floor--inject-2"><rect x="19.35" y="458.95" width="464.24" height="1" style="fill:#263238"></rect></g><g id="freepik--Bricks--inject-2"><g style="opacity:0.2"><rect x="276.63" y="183.1" width="21.28" height="9.67"></rect><rect x="288.53" y="171.08" width="21.28" height="9.67"></rect><rect x="301.48" y="183.1" width="21.28" height="9.67"></rect><rect x="338.52" y="149.82" width="21.28" height="9.67"></rect><rect x="350.42" y="137.79" width="21.28" height="9.67"></rect><rect x="363.37" y="149.82" width="21.28" height="9.67"></rect><rect x="301.48" y="213.97" width="21.28" height="9.67"></rect><rect x="313.38" y="201.94" width="21.28" height="9.67"></rect><rect x="326.33" y="213.97" width="21.28" height="9.67"></rect><rect x="368.02" y="304.96" width="21.28" height="9.67"></rect><rect x="379.92" y="292.93" width="21.28" height="9.67"></rect><rect x="392.87" y="304.96" width="21.28" height="9.67"></rect><rect x="368.02" y="405.17" width="21.28" height="9.67"></rect><rect x="379.92" y="393.14" width="21.28" height="9.67"></rect><rect x="392.87" y="405.17" width="21.28" height="9.67"></rect><rect x="282.24" y="327" width="21.28" height="9.67"></rect><rect x="294.14" y="314.98" width="21.28" height="9.67"></rect><rect x="307.09" y="327" width="21.28" height="9.67"></rect><rect x="282.24" y="361.88" width="21.28" height="9.67"></rect><rect x="294.14" y="349.85" width="21.28" height="9.67"></rect><rect x="307.09" y="361.88" width="21.28" height="9.67"></rect><rect x="332.34" y="361.88" width="21.28" height="9.67"></rect><rect x="344.24" y="349.85" width="21.28" height="9.67"></rect><rect x="357.19" y="361.88" width="21.28" height="9.67"></rect></g></g></svg>